# File created by Blade
# Date/Time:  Thu Jan 22 15:50:06 2015
#---------------------------------------------------------
:version 1.10
:name HOM
:units
  mass 1.0
  length 1.000000
  angle deg
:documentation
     Acclaim Skeleton File
:root
   axis xyz
   order TX TY TZ RX RY RZ
   position 0.000000 0.000000 0.000000
   orientation 0 0 0
:bonedata
   begin
      id 1
      name RightUpLeg_dum
      direction -1.000000 0.000000 0.000000
      length 3.766986
      axis 0.0 0.0 0.0 xyz
   end
   begin
      id 2
      name LeftUpLeg_dum
      direction 1.000000 0.000000 0.000000
      length 3.766986
      axis 0.0 0.0 0.0 xyz
   end
   begin
      id 3
      name Spine_dum
      direction 0.000000 1.000000 0.000000
      length 7.779697
      axis 0.0 0.0 0.0 xyz
   end
   begin
      id 4
      name RightUpLeg
      direction 0.000000 -1.000000 0.000000
      length 18.017682
      axis 0.0 0.0 0.0 xyz
      dof rx ry rz
   end
   begin
      id 5
      name RightLeg
      direction 0.000000 -1.000000 0.000000
      length 16.881075
      axis 0.0 0.0 0.0 xyz
      dof rx ry rz
   end
   begin
      id 6
      name RightFoot
      direction 0.000000 -0.258819 0.965926
      length 5.770812
      axis 15.0 0.0 0.0 xyz
      dof rx ry rz
   end
   begin
      id 7
      name RightToeBase
      direction 0.000000 0.000000 1.000000
      length 2.952750
      axis 0.0 0.0 0.0 xyz
      dof rx ry rz
   end
   begin
      id 8
      name LeftUpLeg
      direction 0.000000 -1.000000 0.000000
      length 18.017682
      axis 0.0 0.0 0.0 xyz
      dof rx ry rz
   end
   begin
      id 9
      name LeftLeg
      direction 0.000000 -1.000000 0.000000
      length 16.881075
      axis 0.0 0.0 0.0 xyz
      dof rx ry rz
   end
   begin
      id 10
      name LeftFoot
      direction 0.000000 -0.258819 0.965926
      length 5.770812
      axis 15.0 0.0 0.0 xyz
      dof rx ry rz
   end
   begin
      id 11
      name LeftToeBase
      direction 0.000000 0.000000 1.000000
      length 2.952750
      axis 0.0 0.0 0.0 xyz
      dof rx ry rz
   end
   begin
      id 12
      name Spine
      direction 0.000000 1.000000 0.000000
      length 0.000000
      axis 0.0 0.0 0.0 xyz
      dof rx ry rz
   end
   begin
      id 13
      name Spine_dum1
      direction 0.000000 1.000000 0.000000
      length 10.941760
      axis 0.0 0.0 0.0 xyz
   end
   begin
      id 14
      name Spine_dum2
      direction 0.000000 1.000000 0.000000
      length 10.941760
      axis 0.0 0.0 0.0 xyz
   end
   begin
      id 15
      name Spine_dum3
      direction 0.000000 1.000000 0.000000
      length 16.646042
      axis 0.0 0.0 0.0 xyz
   end
   begin
      id 16
      name RightShoulder
      direction -1.000000 0.000000 0.000000
      length 7.708937
      axis 0.0 0.0 90.0 xyz
      dof rx ry rz
   end
   begin
      id 17
      name RightArm
      direction -1.000000 0.000000 0.000000
      length 11.521345
      axis 0.0 0.0 90.0 xyz
      dof rx ry rz
   end
   begin
      id 18
      name RightForeArm
      direction -1.000000 0.000000 0.000000
      length 10.175898
      axis 0.0 0.0 90.0 xyz
      dof ry rz rx
   end
   begin
      id 19
      name RightHand
      direction -1.000000 0.000000 0.000000
      length 0.000000
      axis 0.0 0.0 90.0 xyz
      dof rx ry rz
   end
   begin
      id 20
      name RightHand_dum1
      direction -1.000000 0.000000 0.000000
      length 3.937000
      axis 0.0 0.0 90.0 xyz
   end
   begin
      id 21
      name RightHand_dum2
      direction 0.000000 0.000000 0.000000
      length 0.000000
      axis 0.0 0.0 90.0 xyz
   end
   begin
      id 22
      name RightHandThumb1
      direction 0.000000 0.000000 1.000000
      length 3.937000
      axis 0.0 0.0 90.0 xyz
      dof rx rz ry
   end
   begin
      id 23
      name LeftShoulder
      direction 1.000000 0.000000 0.000000
      length 7.708937
      axis 0.0 0.0 -90.0 xyz
      dof rx ry rz
   end
   begin
      id 24
      name LeftArm
      direction 1.000000 0.000000 0.000000
      length 11.521345
      axis 0.0 0.0 -90.0 xyz
      dof rx ry rz
   end
   begin
      id 25
      name LeftForeArm
      direction 1.000000 0.000000 0.000000
      length 10.175898
      axis 0.0 0.0 -90.0 xyz
      dof ry rz rx
   end
   begin
      id 26
      name LeftHand
      direction 1.000000 0.000000 0.000000
      length 0.000000
      axis 0.0 0.0 -90.0 xyz
      dof rx ry rz
   end
   begin
      id 27
      name LeftHand_dum1
      direction 1.000000 0.000000 0.000000
      length 3.937000
      axis 0.0 0.0 -90.0 xyz
   end
   begin
      id 28
      name LeftHand_dum2
      direction 0.000000 0.000000 0.000000
      length 0.000000
      axis 0.0 0.0 -90.0 xyz
   end
   begin
      id 29
      name LeftHandThumb1
      direction 0.000000 0.000000 1.000000
      length 3.937000
      axis 0.0 0.0 -90.0 xyz
      dof rx rz ry
   end
   begin
      id 30
      name Head
      direction 0.000000 1.000000 0.000000
      length 4.527550
      axis 0.0 0.0 0.0 xyz
      dof rx ry rz
   end
:hierarchy
   begin
      root RightUpLeg_dum LeftUpLeg_dum Spine_dum
      RightUpLeg_dum RightUpLeg
      LeftUpLeg_dum LeftUpLeg
      Spine_dum Spine
      RightUpLeg RightLeg
      RightLeg RightFoot
      RightFoot RightToeBase
      LeftUpLeg LeftLeg
      LeftLeg LeftFoot
      LeftFoot LeftToeBase
      Spine Spine_dum1 Spine_dum2 Spine_dum3
      Spine_dum1 RightShoulder
      Spine_dum2 LeftShoulder
      Spine_dum3 Head
      RightShoulder RightArm
      RightArm RightForeArm
      RightForeArm RightHand
      RightHand RightHand_dum1 RightHand_dum2
      RightHand_dum2 RightHandThumb1
      LeftShoulder LeftArm
      LeftArm LeftForeArm
      LeftForeArm LeftHand
      LeftHand LeftHand_dum1 LeftHand_dum2
      LeftHand_dum2 LeftHandThumb1
   end

# File created by Blade
# Date/Time:  Thu Jan 22 15:49:58 2015
# Frame Rate: 120.000 fps
#------------------------------------------------------
:FULLY-SPECIFIED
:DEGREES
138
root 3.248309 37.026583 4.992378 -6.549384 -2.706735 2.621302
RightUpLeg 14.600801 -6.127899 -6.175799
RightLeg -4.740979 -0.000000 0.000000
RightFoot -12.596196 -12.433293 16.699661
RightToeBase 14.856908 -0.000000 -0.000000
LeftUpLeg 13.005033 5.035608 1.814862
LeftLeg -1.958556 -0.000000 0.000000
LeftFoot -8.277694 8.056409 -16.256233
LeftToeBase 8.347829 -0.000000 -0.000000
Spine 9.634515 -2.951437 -3.826968
RightShoulder -1.101358 -12.286942 -27.952136
RightArm 9.037229 27.996837 31.202091
RightForeArm 3.556509 0.000000 17.905246
RightHand 2.622741 -0.000000 6.123518
RightHandThumb1 -24.326973 -0.000000 -32.862282
LeftShoulder -21.408775 33.670518 16.661721
LeftArm 40.940649 -45.966937 -50.949445
LeftForeArm 36.263860 -0.000000 8.077142
LeftHand -15.221718 -0.000000 -9.628554
LeftHandThumb1 -26.253704 0.000000 33.147579
Head 4.729758 12.709206 5.011825
139
root 3.249469 37.026840 4.993339 -6.563823 -2.703405 2.621520
RightUpLeg 14.610773 -6.146565 -6.182717
RightLeg -4.725996 -0.000000 0.000000
RightFoot -12.596480 -12.421948 16.700172
RightToeBase 14.796007 -0.000000 -0.000000
LeftUpLeg 13.019316 5.019050 1.805219
LeftLeg -1.953514 -0.000000 0.000000
LeftFoot -8.310290 8.085972 -16.302621
LeftToeBase 8.422269 -0.000000 -0.000000
Spine 9.641809 -2.959118 -3.811785
RightShoulder -1.105518 -12.254980 -27.938239
RightArm 9.016521 27.899848 31.163988
RightForeArm 3.603488 -0.000000 17.963619
RightHand 2.647631 -0.000000 6.096923
RightHandThumb1 -24.326973 -0.000000 -32.862282
LeftShoulder -21.420082 33.665134 16.653327
LeftArm 40.943446 -45.927127 -50.941984
LeftForeArm 36.257562 -0.000000 8.083717
LeftHand -15.217262 -0.000000 -9.630230
LeftHandThumb1 -26.253704 0.000000 33.147579
Head 4.868495 12.692204 4.965458
140
root 3.246926 37.027073 4.993718 -6.591205 -2.702481 2.604713
RightUpLeg 14.670348 -6.046697 -6.149977
RightLeg -4.788586 -0.000000 0.000000
RightFoot -12.571374 -12.495290 16.732711
RightToeBase 14.840163 -0.000000 -0.000000
LeftUpLeg 13.047066 5.011698 1.834459
LeftLeg -1.954949 -0.000000 0.000000
LeftFoot -8.293860 8.069920 -16.267687
LeftToeBase 8.316171 -0.000000 -0.000000
Spine 9.675126 -2.983081 -3.785299
RightShoulder -1.104524 -12.266003 -27.932258
RightArm 9.044757 27.821365 31.146153
RightForeArm 3.639592 -0.000000 18.013083
RightHand 2.627336 0.000000 6.115448
RightHandThumb1 -24.326973 -0.000000 -32.862282
LeftShoulder -21.436841 33.663587 16.630682
LeftArm 40.923483 -45.916919 -50.920696
LeftForeArm 36.279340 -0.000000 8.098693
LeftHand -15.259210 0.000000 -9.528626
LeftHandThumb1 -26.253704 0.000000 33.147579
Head 4.943966 12.792826 4.978014
141
root 3.249363 37.026759 4.994282 -6.609144 -2.701102 2.621572
RightUpLeg 14.659870 -6.123577 -6.191773
RightLeg -4.725446 -0.000000 0.000000
RightFoot -12.598331 -12.399513 16.703499
RightToeBase 14.854272 -0.000000 -0.000000
LeftUpLeg 13.063509 5.000434 1.806344
LeftLeg -1.950950 -0.000000 0.000000
LeftFoot -8.306300 8.109039 -16.293829
LeftToeBase 8.339074 -0.000000 -0.000000
Spine 9.697525 -2.998820 -3.787884
RightShoulder -1.114273 -12.240582 -27.929401
RightArm 9.036246 27.661291 31.104942
RightForeArm 3.698874 -0.000000 18.094197
RightHand 2.609183 -0.000000 6.080758
RightHandThumb1 -24.326973 -0.000000 -32.862282
LeftShoulder -21.445456 33.654160 16.615390
LeftArm 40.889605 -45.894151 -50.884918
LeftForeArm 36.273966 -0.000000 8.111301
LeftHand -15.263885 -0.000000 -9.546603
LeftHandThumb1 -26.253704 0.000000 33.147579
Head 4.982592 12.889388 4.968481
142
root 3.247007 37.027009 4.993866 -6.624672 -2.707826 2.606976
RightUpLeg 14.698038 -6.034736 -6.169173
RightLeg -4.764662 -0.000000 0.000000
RightFoot -12.577836 -12.440891 16.748187
RightToeBase 14.840738 -0.000000 -0.000000
LeftUpLeg 13.077797 5.014697 1.829063
LeftLeg -1.947240 -0.000000 0.000000
LeftFoot -8.304885 8.097552 -16.297817
LeftToeBase 8.347358 -0.000000 -0.000000
Spine 9.726524 -3.010158 -3.768800
RightShoulder -1.126856 -12.237192 -27.897747
RightArm 9.063925 27.552212 31.056726
RightForeArm 3.711219 -0.000000 18.134974
RightHand 2.626039 -0.000000 6.052552
RightHandThumb1 -24.326973 -0.000000 -32.862282
LeftShoulder -21.464628 33.638003 16.612044
LeftArm 40.859438 -45.878754 -50.874317
LeftForeArm 36.288987 0.000000 8.146204
LeftHand -15.201673 -0.000000 -9.566008
LeftHandThumb1 -26.253704 0.000000 33.147579
Head 4.962348 12.901336 4.927811
143
root 3.247249 37.027225 4.993927 -6.635485 -2.713587 2.607935
RightUpLeg 14.709663 -6.015550 -6.169593
RightLeg -4.767596 -0.000000 0.000000
RightFoot -12.576398 -12.442534 16.756772
RightToeBase 14.831666 -0.000000 -0.000000
LeftUpLeg 13.093728 4.999640 1.826171
LeftLeg -1.956830 -0.000000 0.000000
LeftFoot -8.308530 8.109909 -16.297324
LeftToeBase 8.337679 -0.000000 -0.000000
Spine 9.745724 -3.024310 -3.755109
RightShoulder -1.139295 -12.239272 -27.899796
RightArm 9.131406 27.584183 31.081598
RightForeArm 3.497692 -0.000000 18.190873
RightHand 2.559356 -0.000000 6.140280
RightHandThumb1 -24.326973 -0.000000 -32.862282
LeftShoulder -21.485072 33.637359 16.585416
LeftArm 40.854387 -45.888172 -50.873950
LeftForeArm 36.308897 -0.000000 8.163362
LeftHand -15.162469 -0.000000 -9.557545
LeftHandThumb1 -26.253704 0.000000 33.147579
Head 4.929704 12.991544 4.893767
144
root 3.247752 37.027599 4.994659 -6.644654 -2.730936 2.607324
RightUpLeg 14.716066 -6.001607 -6.167863
RightLeg -4.769871 -0.000000 0.000000
RightFoot -12.576732 -12.450162 16.742966
RightToeBase 14.843193 -0.000000 -0.000000
LeftUpLeg 13.109201 5.009585 1.828597
LeftLeg -1.961740 -0.000000 0.000000
LeftFoot -8.304453 8.117287 -16.305595
LeftToeBase 8.312550 -0.000000 -0.000000
Spine 9.758457 -3.039468 -3.732672
RightShoulder -1.154761 -12.282393 -27.888412
RightArm 9.205321 27.545466 31.060832
RightForeArm 3.430892 -0.000000 18.301622
RightHand 2.525656 -0.000000 6.201285
RightHandThumb1 -24.326973 -0.000000 -32.862282
LeftShoulder -21.496571 33.629554 16.564350
LeftArm 40.809899 -45.898206 -50.860098
LeftForeArm 36.280702 -0.000000 8.194695
LeftHand -15.174062 0.000000 -9.525606
LeftHandThumb1 -26.253704 0.000000 33.147579
Head 4.890974 13.060153 4.828904
145
root 3.247089 37.027830 4.994767 -6.650929 -2.736070 2.602712
RightUpLeg 14.720393 -6.001868 -6.162982
RightLeg -4.767278 -0.000000 0.000000
RightFoot -12.564879 -12.453648 16.752170
RightToeBase 14.808421 -0.000000 -0.000000
LeftUpLeg 13.121040 5.022193 1.843422
LeftLeg -1.972110 -0.000000 0.000000
LeftFoot -8.278117 8.073366 -16.270551
LeftToeBase 8.319083 -0.000000 -0.000000
Spine 9.775350 -3.063171 -3.718165
RightShoulder -1.170026 -12.295893 -27.864371
RightArm 9.239696 27.418157 30.999842
RightForeArm 3.404980 -0.000000 18.413828
RightHand 2.605451 0.000000 6.228484
RightHandThumb1 -24.326973 -0.000000 -32.862282
LeftShoulder -21.520471 33.623074 16.551290
LeftArm 40.813903 -45.935894 -50.894757
LeftForeArm 36.266194 -0.000000 8.216141
LeftHand -15.118964 -0.000000 -9.457357
LeftHandThumb1 -26.253704 0.000000 33.147579
Head 4.807489 13.131681 4.797139
146
root 3.246822 37.028093 4.994188 -6.658058 -2.743608 2.601446
RightUpLeg 14.724176 -6.002678 -6.157501
RightLeg -4.774300 -0.000000 0.000000
RightFoot -12.548586 -12.454472 16.709319
RightToeBase 14.797930 -0.000000 -0.000000
LeftUpLeg 13.128500 5.035337 1.849014
LeftLeg -1.971578 -0.000000 0.000000
LeftFoot -8.272470 8.067923 -16.261883
LeftToeBase 8.312126 -0.000000 -0.000000
Spine 9.790306 -3.084336 -3.702968
RightShoulder -1.171200 -12.275260 -27.853344
RightArm 9.241142 27.344346 30.952911
RightForeArm 3.346031 -0.000000 18.563268
RightHand 2.606190 -0.000000 6.327560
RightHandThumb1 -24.326973 -0.000000 -32.862282
LeftShoulder -21.527720 33.611115 16.551303
LeftArm 40.827420 -46.001255 -50.960341
LeftForeArm 36.246723 -0.000000 8.229972
LeftHand -15.016278 -0.000000 -9.344084
LeftHandThumb1 -26.253704 0.000000 33.147579
Head 4.722697 13.230970 4.761427
147
root 3.247023 37.028187 4.993579 -6.658813 -2.759305 2.599616
RightUpLeg 14.720656 -6.006786 -6.157080
RightLeg -4.771772 -0.000000 0.000000
RightFoot -12.538683 -12.438797 16.710081
RightToeBase 14.766243 -0.000000 -0.000000
LeftUpLeg 13.134003 5.041003 1.850040
LeftLeg -1.979454 -0.000000 0.000000
LeftFoot -8.271498 8.081639 -16.257766
LeftToeBase 8.303991 -0.000000 -0.000000
Spine 9.795108 -3.104683 -3.677186
RightShoulder -1.179265 -12.290899 -27.859365
RightArm 9.271293 27.302676 30.929119
RightForeArm 3.311115 -0.000000 18.763126
RightHand 2.625539 -0.000000 6.371017
RightHandThumb1 -24.326973 -0.000000 -32.862282
LeftShoulder -21.526388 33.587262 16.523996
LeftArm 40.789095 -46.085657 -50.959470
LeftForeArm 36.131229 -0.000000 8.269709
LeftHand -15.007610 -0.000000 -9.178581
LeftHandThumb1 -26.253704 0.000000 33.147579
Head 4.647108 13.395873 4.760571
148
root 3.247025 37.028950 4.992756 -6.655614 -2.778657 2.595035
RightUpLeg 14.710389 -6.003931 -6.151070
RightLeg -4.770374 -0.000000 0.000000
RightFoot -12.531099 -12.435103 16.718047
RightToeBase 14.752651 -0.000000 -0.000000
LeftUpLeg 13.139249 5.053575 1.855254
LeftLeg -1.994529 -0.000000 0.000000
LeftFoot -8.263703 8.087872 -16.268259
LeftToeBase 8.356256 -0.000000 -0.000000
Spine 9.787442 -3.116765 -3.648586
RightShoulder -1.183225 -12.297644 -27.856998
RightArm 9.274649 27.286020 30.892412
RightForeArm 3.317324 -0.000000 19.009385
RightHand 2.779882 0.000000 6.446474
RightHandThumb1 -24.326973 -0.000000 -32.862282
LeftShoulder -21.532080 33.572662 16.510910
LeftArm 40.831657 -46.241379 -51.055644
LeftForeArm 36.010876 -0.000000 8.317873
LeftHand -14.810106 -0.000000 -9.294222
LeftHandThumb1 -26.253704 0.000000 33.147579
Head 4.581273 13.462298 4.702062
149
root 3.247650 37.029300 4.992064 -6.650999 -2.801236 2.595327
RightUpLeg 14.697666 -6.023779 -6.147362
RightLeg -4.770453 -0.000000 0.000000
RightFoot -12.531499 -12.448928 16.716342
RightToeBase 14.800869 -0.000000 -0.000000
LeftUpLeg 13.140269 5.085034 1.857701
LeftLeg -1.999780 -0.000000 0.000000
LeftFoot -8.254880 8.081601 -16.272536
LeftToeBase 8.310695 -0.000000 -0.000000
Spine 9.781772 -3.130073 -3.617011
RightShoulder -1.199566 -12.297212 -27.875313
RightArm 9.282504 27.336837 30.900123
RightForeArm 3.362128 -0.000000 19.300100
RightHand 3.044218 -0.000000 6.461907
RightHandThumb1 -24.326973 -0.000000 -32.862282
LeftShoulder -21.525671 33.515517 16.477321
LeftArm 40.794103 -46.383706 -51.043778
LeftForeArm 35.838088 -0.000000 8.381809
LeftHand -14.833986 0.000000 -9.027219
LeftHandThumb1 -26.253704 0.000000 33.147579
Head 4.471948 13.566353 4.597547
